{"title":"The.Violent.Kind.2010.SWESUB.BRRip.DivX.AC3-RosaGris","uid":7364041,"size":1467101184,"categoryP":"video","categoryS":"movies","magnet":"?xt=urn:btih:ae9202443c097c59831d90c22923632ea25a84f3&amp;dn=The.Violent.Kind.2010.SWESUB.BRRip.DivX.AC3-RosaGris&amp;tr=udp%3A%2F%2Ftracker.openbittorrent.com%3A80&amp;tr=udp%3A%2F%2Fopen.demonii.com%3A1337&amp;tr=udp%3A%2F%2Ftracker.coppersurfer.tk%3A6969&amp;tr=udp%3A%2F%2Fexodus.desync.com%3A6969","seeders":0,"leechers":1,"uploader":null,"files":1,"time":1340047694,"description":"One night at a secluded farmhouse deep in the Northern California woods, a small group of hardened young bikers and their girlfriends are tormented when one of the girls becomes savagely possessed and a gang of &quot;Rockabillies&quot; seemingly from the 1950's descends upon them to collect what is growing inside her.\n\n\n\n\nFormat/Info                    : Audio Video Interleave\nFile size                      : 1.37 GiB\nDuration                       : 1h 28mn\nOverall bit rate               : 2 204 Kbps\nWriting application            : VirtualDubMod 1.5.10.2 (build 2540/release)\nWriting library                : VirtualDubMod build 2540/release\n\nVideo\nID                             : 0\nFormat                         : MPEG-4 Visual\nFormat settings, BVOP          : 1\nFormat settings, QPel          : No\nFormat settings, GMC           : No warppoints\nFormat settings, Matrix        : Default (H.263)\nMuxing mode                    : Packed bitstream\nCodec ID                       : DX50\nCodec ID/Hint                  : DivX 5\nDuration                       : 1h 28mn\nBit rate                       : 1 747 Kbps\nWidth                          : 640 pixels\nHeight                         : 368 pixels\nDisplay aspect ratio           : 1.739\nFrame rate                     : 23.976 fps\nColor space                    : YUV\nChroma subsampling             : 4:2:0\nBit depth                      : 8 bits\nScan type                      : Progressive\nCompression mode               : Lossy\nBits/(Pixel*Frame)             : 0.309\nStream size                    : 1.08 GiB (79%)\nWriting library                : DivX 6.8.5 (UTC 2009-08-20)\n\nAudio\nID                             : 1\nFormat                         : AC-3\nFormat/Info                    : Audio Coding 3\nMode extension                 : CM (complete main)\nFormat settings, Endianness    : Big\nCodec ID                       : 2000\nDuration                       : 1h 28mn\nBit rate mode                  : Constant\nBit rate                       : 448 Kbps\nChannel(s)                     : 6 channels\nChannel positions              : Front: L C R, Side: L R, LFE\nSampling rate                  : 48.0 KHz\nBit depth                      : 16 bits\nCompression mode               : Lossy\nStream size                    : 284 MiB (20%)\nAlignment                      : Split accross interleaves\nInterleave, duration           : 42 ms (1.00 video frame)\nInterleave, preload duration   : 500 ms\n","torrent":{"xt":"urn:btih:ae9202443c097c59831d90c22923632ea25a84f3","amp;dn":"The.Violent.Kind.2010.SWESUB.BRRip.DivX.AC3-RosaGris","amp;tr":["udp%3A%2F%2Ftracker.openbittorrent.com%3A80","udp%3A%2F%2Fopen.demonii.com%3A1337","udp%3A%2F%2Ftracker.coppersurfer.tk%3A6969","udp%3A%2F%2Fexodus.desync.com%3A6969"],"infoHash":"ae9202443c097c59831d90c22923632ea25a84f3","infoHashBuffer":{"type":"Buffer","data":[174,146,2,68,60,9,124,89,131,29,144,194,41,35,99,46,162,90,132,243]},"announce":[],"urlList":[]}}